<svg width="32" height="32" viewBox="0 0 32 32" fill="none" xmlns="http://www.w3.org/2000/svg">
<g clip-path="url(#clip0_1243_13763)">
<path d="M16.366 42.273C13.792 42.273 11.426 41.675 9.268 40.479C7.136 39.283 5.433 37.619 4.159 35.487C2.911 33.329 2.287 30.911 2.287 28.233C2.287 25.555 2.911 23.15 4.159 21.018C5.433 18.886 7.136 17.222 9.268 16.026C11.426 14.83 13.792 14.232 16.366 14.232C18.94 14.232 21.293 14.83 23.425 16.026C25.583 17.222 27.273 18.886 28.495 21.018C29.743 23.15 30.367 25.555 30.367 28.233C30.367 30.911 29.743 33.329 28.495 35.487C27.247 37.619 25.557 39.283 23.425 40.479C21.293 41.675 18.94 42.273 16.366 42.273ZM16.366 36.189C18.55 36.189 20.292 35.461 21.592 34.005C22.918 32.549 23.581 30.625 23.581 28.233C23.581 25.815 22.918 23.891 21.592 22.461C20.292 21.005 18.55 20.277 16.366 20.277C14.156 20.277 12.388 20.992 11.062 22.422C9.762 23.852 9.112 25.789 9.112 28.233C9.112 30.651 9.762 32.588 11.062 34.044C12.388 35.474 14.156 36.189 16.366 36.189Z" fill="#FFCD2C"/>
<path d="M16.366 8.273C13.792 8.273 11.426 7.675 9.268 6.479C7.136 5.283 5.433 3.619 4.159 1.487C2.911 -0.671 2.287 -3.089 2.287 -5.767C2.287 -8.445 2.911 -10.85 4.159 -12.982C5.433 -15.114 7.136 -16.778 9.268 -17.974C11.426 -19.17 13.792 -19.768 16.366 -19.768C18.94 -19.768 21.293 -19.17 23.425 -17.974C25.583 -16.778 27.273 -15.114 28.495 -12.982C29.743 -10.85 30.367 -8.445 30.367 -5.767C30.367 -3.089 29.743 -0.671 28.495 1.487C27.247 3.619 25.557 5.283 23.425 6.479C21.293 7.675 18.94 8.273 16.366 8.273ZM16.366 2.189C18.55 2.189 20.292 1.461 21.592 0.00499949C22.918 -1.451 23.581 -3.375 23.581 -5.767C23.581 -8.185 22.918 -10.109 21.592 -11.539C20.292 -12.995 18.55 -13.723 16.366 -13.723C14.156 -13.723 12.388 -13.008 11.062 -11.578C9.762 -10.148 9.112 -8.211 9.112 -5.767C9.112 -3.349 9.762 -1.412 11.062 0.0439996C12.388 1.474 14.156 2.189 16.366 2.189Z" fill="#FFCD2C"/>
</g>
<defs>
<clipPath id="clip0_1243_13763">
<rect width="32" height="32" fill="white"/>
</clipPath>
</defs>
</svg>
